<?xml version="1.0" standalone="no"?>
<!DOCTYPE svg PUBLIC "-//W3C//DTD SVG 20010904//EN"
 "http://www.w3.org/TR/2001/REC-SVG-20010904/DTD/svg10.dtd">
<svg version="1.0" xmlns="http://www.w3.org/2000/svg"
 width="649.000000pt" height="649.000000pt" viewBox="0 0 649.000000 649.000000"
 preserveAspectRatio="xMidYMid meet">
<metadata>
Created by potrace 1.14, written by Peter Selinger 2001-2017
</metadata>
<g transform="translate(0.000000,649.000000) scale(0.100000,-0.100000)"
fill="#000000" stroke="none">
<path d="M3170 6423 c-25 -8 -56 -23 -70 -33 -14 -9 -45 -28 -70 -42 -65 -37
-108 -61 -170 -98 -60 -36 -84 -49 -175 -101 -33 -18 -61 -37 -63 -41 -2 -4
-8 -8 -13 -8 -9 0 -91 -46 -147 -82 -15 -10 -40 -24 -57 -32 -34 -17 -88 -48
-95 -56 -3 -3 -16 -11 -30 -18 -14 -7 -47 -25 -75 -42 -27 -16 -70 -41 -95
-55 -25 -14 -58 -34 -75 -44 -33 -20 -88 -51 -155 -89 -25 -14 -56 -32 -70
-42 -14 -9 -32 -20 -40 -23 -8 -4 -33 -18 -55 -32 -22 -14 -49 -30 -60 -35
-11 -5 -38 -21 -60 -34 -22 -14 -51 -31 -65 -39 -14 -7 -41 -23 -61 -34 -20
-12 -47 -27 -60 -35 -13 -7 -26 -15 -29 -18 -3 -3 -16 -11 -30 -17 -14 -7 -43
-24 -65 -38 -22 -14 -47 -28 -55 -32 -13 -7 -116 -67 -168 -98 -9 -6 -51 -29
-92 -53 -41 -24 -88 -51 -105 -61 -16 -10 -52 -30 -80 -45 -27 -16 -54 -32
-60 -36 -5 -4 -36 -22 -68 -39 -79 -44 -105 -68 -129 -121 -21 -45 -21 -51
-24 -1604 -2 -1109 0 -1564 8 -1573 6 -7 8 -13 4 -13 -17 0 56 -90 84 -104 8
-4 32 -17 52 -29 20 -12 90 -53 155 -91 65 -38 136 -80 158 -93 22 -12 54 -30
70 -38 33 -17 57 -31 95 -55 26 -17 103 -62 155 -90 17 -9 49 -28 72 -43 24
-15 45 -27 49 -27 3 0 18 -8 32 -19 15 -10 54 -33 87 -50 33 -18 81 -45 107
-61 25 -15 66 -39 90 -53 23 -13 59 -34 78 -46 19 -11 49 -28 65 -36 17 -9 39
-21 49 -28 70 -44 129 -79 148 -87 13 -6 37 -19 53 -30 17 -10 41 -25 55 -33
14 -7 68 -39 120 -69 52 -30 115 -66 140 -80 25 -14 61 -35 80 -46 19 -12 53
-32 75 -44 22 -12 49 -28 60 -35 11 -7 31 -18 45 -25 23 -11 116 -65 165 -96
11 -6 31 -17 45 -23 14 -6 32 -16 40 -24 8 -7 38 -25 65 -40 28 -14 68 -37 90
-50 71 -44 103 -54 163 -51 59 3 56 1 271 128 25 16 55 32 66 38 11 6 34 19
50 29 17 11 58 34 93 52 34 18 62 37 62 41 0 4 5 8 11 8 7 0 35 14 63 32 28
17 67 40 86 51 19 11 49 28 65 38 17 11 37 22 45 26 8 4 42 23 75 43 54 33
113 67 185 107 14 8 43 25 65 39 22 13 60 36 85 50 25 14 63 36 85 49 22 13
51 30 65 38 61 34 102 58 139 81 22 15 43 26 46 26 3 0 24 12 48 27 23 15 53
33 67 40 14 7 32 17 40 22 47 31 153 91 161 91 5 0 9 4 9 8 0 4 12 13 28 20
15 6 43 21 62 33 19 12 60 35 90 52 30 17 67 38 82 49 14 10 31 18 36 18 6 0
12 3 14 8 2 4 19 16 38 26 80 44 195 110 200 115 6 7 43 29 85 50 108 54 178
119 190 177 11 49 15 3143 4 3149 -5 4 -7 11 -4 16 4 5 1 9 -6 9 -7 0 -10 3
-6 6 3 3 1 11 -4 18 -5 6 -17 20 -27 32 -9 11 -36 32 -59 45 -22 13 -67 39
-100 58 -32 19 -71 42 -88 51 -16 10 -58 34 -92 54 -34 20 -66 36 -71 36 -6 0
-12 4 -14 8 -1 5 -15 15 -30 23 -15 8 -73 41 -130 73 -57 33 -114 66 -128 74
-14 7 -43 24 -65 38 -22 14 -52 30 -67 37 -16 6 -28 15 -28 18 0 4 -16 13 -35
19 -19 6 -35 15 -35 20 0 4 -12 13 -27 19 -16 6 -50 25 -78 41 -27 17 -57 33
-65 37 -8 3 -22 12 -30 18 -8 7 -37 25 -65 40 -27 14 -63 34 -80 44 -16 10
-50 30 -75 45 -25 15 -57 32 -72 39 -16 6 -28 15 -28 18 0 4 -16 13 -35 19
-19 6 -35 15 -35 20 0 4 -12 13 -27 19 -16 7 -44 22 -65 34 -49 30 -145 86
-188 110 -19 10 -60 34 -91 53 -31 19 -62 34 -68 34 -6 0 -11 3 -11 8 0 4 -10
12 -23 18 -12 6 -124 70 -249 142 -124 73 -231 132 -237 132 -6 0 -11 4 -11 9
0 5 -12 14 -27 20 -16 6 -44 20 -63 30 -48 27 -106 32 -160 14z"/>
</g>
</svg>
